<!-- icon666.com - MILLIONS vector ICONS FREE --><svg id="Capa_1" enable-background="new 0 0 512 512" viewBox="0 0 512 512" xmlns="http://www.w3.org/2000/svg"><g><path d="m395.374 241c18.546 0 34.477-10.645 41.574-27.779 7.098-17.135 3.36-35.926-9.755-49.041l-79.373-79.374c-13.114-13.115-31.904-16.852-49.04-9.755-17.136 7.098-27.78 23.028-27.78 41.575v124.374zm-85.114-138.232c5.884-2.437 11.842-1.252 16.346 3.252l79.374 79.374c4.504 4.504 5.689 10.462 3.252 16.346-2.438 5.885-7.488 9.26-13.858 9.26h-94.374v-94.374c0-6.37 3.375-11.42 9.26-13.858z"></path><path d="m451.5 121c33.36 0 60.5-27.14 60.5-60.5s-27.14-60.5-60.5-60.5-60.5 27.14-60.5 60.5 27.14 60.5 60.5 60.5zm0-91c16.818 0 30.5 13.682 30.5 30.5s-13.682 30.5-30.5 30.5-30.5-13.682-30.5-30.5 13.682-30.5 30.5-30.5z"></path><path d="m213.221 75.051c-17.136-7.097-35.926-3.36-49.04 9.755l-79.374 79.374c-13.115 13.115-16.852 31.906-9.755 49.041 7.097 17.134 23.028 27.779 41.574 27.779h124.374v-124.374c0-18.547-10.644-34.477-27.779-41.575zm-2.221 135.949h-94.374c-6.37 0-11.42-3.375-13.858-9.26-2.437-5.884-1.252-11.842 3.252-16.346l79.374-79.374c4.504-4.504 10.462-5.689 16.346-3.252 5.885 2.438 9.26 7.488 9.26 13.858z"></path><path d="m60.5 121c33.36 0 60.5-27.14 60.5-60.5s-27.14-60.5-60.5-60.5-60.5 27.14-60.5 60.5 27.14 60.5 60.5 60.5zm0-91c16.818 0 30.5 13.682 30.5 30.5s-13.682 30.5-30.5 30.5-30.5-13.682-30.5-30.5 13.682-30.5 30.5-30.5z"></path><path d="m436.948 298.779c-7.097-17.134-23.028-27.779-41.574-27.779h-124.374v124.374c0 18.547 10.644 34.477 27.779 41.575 17.136 7.097 35.926 3.36 49.04-9.755l79.374-79.374c13.115-13.115 16.853-31.906 9.755-49.041zm-30.968 27.827-79.374 79.374c-4.504 4.504-10.462 5.689-16.346 3.252-5.885-2.438-9.26-7.488-9.26-13.858v-94.374h94.374c6.37 0 11.42 3.375 13.858 9.26 2.437 5.884 1.252 11.842-3.252 16.346z"></path><path d="m451.5 391c-33.36 0-60.5 27.14-60.5 60.5s27.14 60.5 60.5 60.5 60.5-27.14 60.5-60.5-27.14-60.5-60.5-60.5zm0 91c-16.818 0-30.5-13.682-30.5-30.5s13.682-30.5 30.5-30.5 30.5 13.682 30.5 30.5-13.682 30.5-30.5 30.5z"></path><path d="m116.626 271c-18.546 0-34.477 10.645-41.574 27.779-7.098 17.135-3.36 35.926 9.755 49.041l79.374 79.374c13.114 13.115 31.904 16.852 49.04 9.755 17.135-7.098 27.779-23.028 27.779-41.575v-124.374zm85.114 138.232c-5.884 2.437-11.842 1.252-16.346-3.252l-79.374-79.374c-4.504-4.504-5.689-10.462-3.252-16.346 2.438-5.885 7.488-9.26 13.858-9.26h94.374v94.374c0 6.37-3.375 11.42-9.26 13.858z"></path><path d="m60.5 391c-33.36 0-60.5 27.14-60.5 60.5s27.14 60.5 60.5 60.5 60.5-27.14 60.5-60.5-27.14-60.5-60.5-60.5zm0 91c-16.818 0-30.5-13.682-30.5-30.5s13.682-30.5 30.5-30.5 30.5 13.682 30.5 30.5-13.682 30.5-30.5 30.5z"></path></g></svg>