<svg width="1174" height="1056" xmlns="http://www.w3.org/2000/svg" xmlns:xlink="http://www.w3.org/1999/xlink" overflow="hidden"><defs><clipPath id="clip0"><rect x="856" y="392" width="1174" height="1056"/></clipPath></defs><g clip-path="url(#clip0)" transform="translate(-856 -392)"><path d="M1154.83 778.174C1165.8 924.871 1508.59 1290.14 1654.29 1277.23 1800 1264.33 2040.04 847.463 2029.07 700.766 2018.1 554.069 1723.84 361.846 1588.49 397.053 1482.4 385.961 1143.87 631.477 1154.83 778.174Z" fill="#58B08E" fill-rule="evenodd"/><path d="M1254.23 647.793C1124.52 717.173 929.185 1178.46 999.924 1306.51 1070.66 1434.55 1548.96 1485.44 1678.67 1416.06 1808.37 1346.68 1865.11 999.778 1778.16 890.231 1745.39 788.716 1383.94 578.413 1254.23 647.793Z" fill="#53B5A7" fill-rule="evenodd" fill-opacity="0.788235"/><path d="M865.12 617.92C815.866 756.535 981.798 1229.17 1120.29 1276.26 1258.78 1323.34 1646.81 1039.04 1696.07 900.423 1745.32 761.807 1553.84 467.058 1415.81 444.563 1323.26 391.545 914.373 479.304 865.12 617.92Z" fill="#4AB0BE" fill-rule="evenodd" fill-opacity="0.85098"/><text fill="#404040" font-family="Bahnschrift SemiCondensed,Bahnschrift SemiCondensed_MSFontService,sans-serif" font-weight="700" font-stretch="semi-condensed" font-size="128" transform="matrix(1 0 0 1 1167.93 911)">SonyaHelp</text></g></svg>