<!-- icon666.com - MILLIONS vector ICONS FREE --><svg viewBox="0 0 32 32" xmlns="http://www.w3.org/2000/svg"><g id="person_chat" data-name="person chat"><path d="m28 3h-24a2 2 0 0 0 -2 2v18a2 2 0 0 0 2 2h2v3a1 1 0 0 0 .57.9.94.94 0 0 0 .43.1 1 1 0 0 0 .63-.22l4.72-3.78h15.65a2 2 0 0 0 2-2v-18a2 2 0 0 0 -2-2zm0 20h-16a1 1 0 0 0 -.62.22l-3.38 2.7v-1.92a1 1 0 0 0 -1-1h-3v-18h24z"></path><path d="m16 14a3 3 0 1 0 -3-3 3 3 0 0 0 3 3zm0-4a1 1 0 1 1 -1 1 1 1 0 0 1 1-1z"></path><path d="m12 21h8a1 1 0 0 0 1-1 5 5 0 0 0 -10 0 1 1 0 0 0 1 1zm4-4a3 3 0 0 1 2.83 2h-5.66a3 3 0 0 1 2.83-2z"></path></g></svg>